TITLE ""
FILE "Step2_Track57.mp3" MP3
  TRACK 01 AUDIO
    TITLE "Step2_Track57_01"
    INDEX 01 00:00:00
  TRACK 02 AUDIO
    TITLE "Step2_Track57_02"
    INDEX 01 00:00:24
  TRACK 03 AUDIO
    TITLE "Step2_Track57_03"
    INDEX 01 00:02:09
  TRACK 04 AUDIO
    TITLE "Step2_Track57_04"
    INDEX 01 00:02:66
  TRACK 05 AUDIO
    TITLE "Step2_Track57_05"
    INDEX 01 00:03:60
  TRACK 06 AUDIO
    TITLE "Step2_Track57_06"
    INDEX 01 00:04:14
  TRACK 07 AUDIO
    TITLE "Step2_Track57_07"
    INDEX 01 00:06:27
  TRACK 08 AUDIO
    TITLE "Step2_Track57_08"
    INDEX 01 00:06:52
  TRACK 09 AUDIO
    TITLE "Step2_Track57_09"
    INDEX 01 00:07:48
  TRACK 10 AUDIO
    TITLE "Step2_Track57_10"
    INDEX 01 00:07:63
  TRACK 11 AUDIO
    TITLE "Step2_Track57_11"
    INDEX 01 00:09:70
  TRACK 12 AUDIO
    TITLE "Step2_Track57_12"
    INDEX 01 00:10:30
  TRACK 13 AUDIO
    TITLE "Step2_Track57_13"
    INDEX 01 00:11:26
  TRACK 14 AUDIO
    TITLE "Step2_Track57_14"
    INDEX 01 00:11:39
  TRACK 15 AUDIO
    TITLE "Step2_Track57_15"
    INDEX 01 00:13:44
  TRACK 16 AUDIO
    TITLE "Step2_Track57_16"
    INDEX 01 00:14:12
  TRACK 17 AUDIO
    TITLE "Step2_Track57_17"
    INDEX 01 00:15:12
  TRACK 18 AUDIO
    TITLE "Step2_Track57_18"
    INDEX 01 00:15:24
  TRACK 19 AUDIO
    TITLE "Step2_Track57_19"
    INDEX 01 00:16:66
  TRACK 20 AUDIO
    TITLE "Step2_Track57_20"
    INDEX 01 00:17:32
  TRACK 21 AUDIO
    TITLE "Step2_Track57_21"
    INDEX 01 00:18:24
  TRACK 22 AUDIO
    TITLE "Step2_Track57_22"
    INDEX 01 00:18:67
  TRACK 23 AUDIO
    TITLE "Step2_Track57_23"
    INDEX 01 00:20:31
  TRACK 24 AUDIO
    TITLE "Step2_Track57_24"
    INDEX 01 00:20:60
  TRACK 25 AUDIO
    TITLE "Step2_Track57_25"
    INDEX 01 00:21:65
  TRACK 26 AUDIO
    TITLE "Step2_Track57_26"
    INDEX 01 00:22:14
  TRACK 27 AUDIO
    TITLE "Step2_Track57_27"
    INDEX 01 00:24:19
  TRACK 28 AUDIO
    TITLE "Step2_Track57_28"
    INDEX 01 00:24:50
  TRACK 29 AUDIO
    TITLE "Step2_Track57_29"
    INDEX 01 00:25:51
  TRACK 30 AUDIO
    TITLE "Step2_Track57_30"
    INDEX 01 00:25:75
  TRACK 31 AUDIO
    TITLE "Step2_Track57_31"
    INDEX 01 00:28:07
  TRACK 32 AUDIO
    TITLE "Step2_Track57_32"
    INDEX 01 00:28:50
  TRACK 33 AUDIO
    TITLE "Step2_Track57_33"
    INDEX 01 00:29:30
  TRACK 34 AUDIO
    TITLE "Step2_Track57_34"
    INDEX 01 00:29:65
  TRACK 35 AUDIO
    TITLE "Step2_Track57_35"
    INDEX 01 00:31:66
  TRACK 36 AUDIO
    TITLE "Step2_Track57_36"
    INDEX 01 00:32:20
  TRACK 37 AUDIO
    TITLE "Step2_Track57_37"
    INDEX 01 00:33:22
  TRACK 38 AUDIO
    TITLE "Step2_Track57_38"
    INDEX 01 00:33:43
  TRACK 39 AUDIO
    TITLE "Step2_Track57_39"
    INDEX 01 00:35:46
  TRACK 40 AUDIO
    TITLE "Step2_Track57_40"
    INDEX 01 00:36:16
  TRACK 41 AUDIO
    TITLE "Step2_Track57_41"
    INDEX 01 00:37:09
  TRACK 42 AUDIO
    TITLE "Step2_Track57_42"
    INDEX 01 00:37:33
  TRACK 43 AUDIO
    TITLE "Step2_Track57_43"
    INDEX 01 00:39:51
